<?xml version="1.0" standalone="no"?><!DOCTYPE svg PUBLIC "-//W3C//DTD SVG 1.1//EN" "http://www.w3.org/Graphics/SVG/1.1/DTD/svg11.dtd"><svg t="1569643383734" class="icon" viewBox="0 0 1024 1024" version="1.1" xmlns="http://www.w3.org/2000/svg" p-id="2768" xmlns:xlink="http://www.w3.org/1999/xlink" width="200" height="200"><defs><style type="text/css"></style></defs><path d="M51.2 512C51.2 257.501288 257.501288 51.2 512 51.2s460.8 206.301288 460.8 460.8c0 254.498712-206.301288 460.8-460.8 460.8S51.2 766.498712 51.2 512zM0 512c0 282.771525 229.228475 512 512 512 282.771525 0 512-229.228475 512-512 0-282.771525-229.228475-512-512-512C229.228475 0 0 229.228475 0 512z" p-id="2769" fill="#d81e06"></path><path d="M714.32678 309.282712c19.447322 19.447322 19.447322 50.991729 0 70.439051L379.721763 714.32678c-19.456 19.456-50.991729 19.456-70.447729 0-19.447322-19.447322-19.447322-50.991729 0-70.439051L643.887729 309.282712C663.335051 289.826712 694.879458 289.826712 714.32678 309.282712z" p-id="2770" fill="#d81e06"></path><path d="M379.721763 309.282712l334.605017 334.605017c19.447322 19.456 19.447322 50.991729 0 70.439051-19.456 19.456-50.991729 19.456-70.447729 0L309.282712 379.721763c-19.447322-19.447322-19.447322-50.991729 0-70.439051C328.730034 289.826712 360.274441 289.826712 379.721763 309.282712z" p-id="2771" fill="#d81e06"></path></svg>