<?xml version="1.0" encoding="UTF-8"?>
<svg width="36px" height="34px" viewBox="0 0 36 34" version="1.1" xmlns="http://www.w3.org/2000/svg" xmlns:xlink="http://www.w3.org/1999/xlink">
    <!-- Generator: Sketch 48.1 (47250) - http://www.bohemiancoding.com/sketch -->
    <title>ic_logo</title>
    <desc>Created with Sketch.</desc>
    <defs></defs>
    <g id="03物料下载" stroke="none" stroke-width="1" fill="none" fill-rule="evenodd" transform="translate(-630.000000, -169.000000)">
        <g id="tittle" transform="translate(630.000000, 168.000000)" fill="#1DADE5">
            <g id="Page-1" transform="translate(0.000000, 1.000000)">
                <g id="Group-3">
                    <path d="M30.5153845,4.99881909 C33.4889534,4.99881909 35.8995569,7.90180091 35.8995569,11.4832373 L35.8995569,25.5308009 C35.8995569,29.11131 33.4889534,32.0142918 30.5153845,32.0142918 L28.9697121,32.0142918 C28.9697121,33.1112555 28.0773155,34.0000464 26.9759017,34.0000464 C25.8744879,34.0000464 24.9810052,33.1112555 24.9810052,32.0142918 L11.0504017,32.0142918 C11.0504017,33.1112555 10.15785,34.0000464 9.05643621,34.0000464 C7.95517759,34.0000464 7.06262586,33.1112555 7.06262586,32.0142918 L5.38536724,32.0142918 C2.41071207,32.0142918 0.00010862069,29.11131 0.00010862069,25.5308009 L0.00010862069,11.4832373 C0.00010862069,7.90180091 2.41071207,4.99881909 5.38536724,4.99881909 L12.3685914,4.99881909 L9.40697069,2.04931909 C8.9400569,1.58429182 8.9400569,0.829800909 9.40697069,0.363691818 C9.64003966,0.131719091 9.94697069,0.0145736364 10.2539017,0.0145736364 C10.5597466,0.0145736364 10.8654362,0.131719091 11.0994362,0.363691818 L15.7533672,4.99881909 L20.2789707,4.99881909 L24.9329017,0.363691818 C25.1669017,0.131719091 25.4729017,0.0145736364 25.7787466,0.0145736364 C26.0853672,0.0145736364 26.3913672,0.131719091 26.6253672,0.363691818 C27.092281,0.829800909 27.092281,1.58429182 26.6253672,2.04931909 L23.6639017,4.99881909 L30.5153845,4.99881909 Z M31.8039362,26.0554827 L31.8039362,10.95871 C31.8039362,9.64151909 30.8733672,8.57500091 29.7261776,8.57500091 L6.17457414,8.57500091 C5.02629828,8.57500091 4.09557414,9.64151909 4.09557414,10.95871 L4.09557414,26.0554827 C4.09557414,27.3714373 5.02629828,28.43811 6.17457414,28.43811 L29.7261776,28.43811 C30.8733672,28.43811 31.8039362,27.3714373 31.8039362,26.0554827 Z M6.54864016,17 L6,14.3474155 L13.4512056,13 L14,15.6525845 L6.54864016,17 Z M29.4472044,17 L22,15.6597752 L22.552951,13 L30,14.3402248 L29.4472044,17 Z M20.0991762,24 C19.3379099,24 18.6347924,23.7177837 18,23.1590919 C17.365046,23.7177837 16.6619286,24 15.9008238,24 C14.2393797,24 13.1219512,22.6287131 13,22.4724046 L14.2791148,21.8191189 C14.4760136,22.0679337 15.1967372,22.7775845 15.9009853,22.7775845 L15.9035697,22.7775845 C16.4916815,22.7760188 17.0201906,22.2563389 17.3598772,21.820815 L18,21 L18.6402843,21.820815 C18.9798094,22.2563389 19.5083185,22.7760188 20.0962688,22.7775845 L20.0990147,22.7775845 C20.8032628,22.7775845 21.5238249,22.0680642 21.7210467,21.8191189 L23,22.4724046 C22.8780488,22.6287131 21.7606203,24 20.0991762,24 Z" id="ic_logo"></path>
                </g>
            </g>
        </g>
    </g>
</svg>